<svg xmlns="http://www.w3.org/2000/svg" viewBox="0 0 271.02 10.63"><defs><style>.cls-1{fill:#ededed;}</style></defs><g id="Layer_2" data-name="Layer 2"><g id="Layer_1-2" data-name="Layer 1"><path class="cls-1" d="M11.5,9.6c2.3.11,4.59.22,6.88.3,4.13.14,8.25.21,12.37.26l3.16,0h.6a2.79,2.79,0,0,0,2.56-.12,4,4,0,0,0,1-.39,3.05,3.05,0,0,0,1.1-1.1,3.09,3.09,0,0,0,.31-2.36,3.17,3.17,0,0,0-.79-1.36l-.62-.48A3.24,3.24,0,0,0,36.54,4a2.81,2.81,0,0,0-.91.11c-1.75,0-3.51,0-5.27,0-2,0-4.06,0-6.08-.08-4.38-.09-8.74-.24-13.11-.45L8.11,3.36,6.81,3.3Q5.9,3.26,5,3.24h0c-.64,0-1.28.09-1.93.15l-.8.11A3,3,0,0,0,.11,5.6a2.9,2.9,0,0,0,0,1.6A3.32,3.32,0,0,0,2.64,9.69l1.3.35a3.06,3.06,0,0,0,2.85-.7l.39,0,1.44.08Z"/><path class="cls-1" d="M53.91,10.55a3.09,3.09,0,1,0-3.08-3.09A3.12,3.12,0,0,0,53.91,10.55Z"/><path class="cls-1" d="M72.42,10.38c9.16,0,18.34-.07,27.51,0a35.32,35.32,0,0,1,3.85.18l.33.05a3.06,3.06,0,0,0,2.94-2.24A3.06,3.06,0,0,0,106.74,6a3,3,0,0,0-1.82-1.41,37,37,0,0,0-6.82-.42H72.42a3.09,3.09,0,1,0,0,6.17Z"/><path class="cls-1" d="M121.83,9.52a3.12,3.12,0,0,0,3.09-3.08,3.09,3.09,0,1,0-3.09,3.08Z"/><path class="cls-1" d="M141.25,7.79C147,7.38,152.69,7,158.41,6.66c2.23-.14,4.47-.2,6.7-.3,1.93-.09,3.86-.15,5.79-.21,1.18,0,2.36-.06,3.54-.07.69,0,1.38,0,2.07,0h2.76l.18.06a2.79,2.79,0,0,0,3.14-1.28,2.75,2.75,0,0,0,.38-1.4,2.69,2.69,0,0,0-.81-2c-.32-.25-.63-.5-1-.72a4.83,4.83,0,0,0-1.36-.51,9.47,9.47,0,0,0-1.5-.19,4.09,4.09,0,0,0-.46,0c-.46,0-.92,0-1.39,0h-.16c-1,0-2,0-3.06.05-2.29.06-4.58.14-6.87.22q-5.94.22-11.85.62-6.66.42-13.3.89a3.19,3.19,0,0,0-2.13.88,3,3,0,0,0,0,4.25A2.9,2.9,0,0,0,141.25,7.79Z"/><path class="cls-1" d="M201.54,7.56a3.12,3.12,0,0,0,3.08-3.09,3.09,3.09,0,1,0-6.17,0A3.12,3.12,0,0,0,201.54,7.56Z"/><path class="cls-1" d="M225.62,8q14.81.36,29.6.94l5.62.21c1,0,1.94.08,2.91.1l1.61,0a5.8,5.8,0,0,0,.59,0,2.46,2.46,0,0,0,.51.39,2.92,2.92,0,0,0,2.24.29,2.83,2.83,0,0,0,1.73-1.33,7.73,7.73,0,0,0,.47-1.07,3.62,3.62,0,0,0,0-1.73,3.54,3.54,0,0,0-1.83-2.14,5.63,5.63,0,0,0-2.71-.51c-.28,0-.57,0-.86,0l-3.23-.1-7-.26c-3.68-.14-7.35-.31-11-.41q-9.33-.28-18.67-.53h-.07a3.09,3.09,0,0,0-3,3.06A3.11,3.11,0,0,0,225.62,8Z"/></g></g></svg>