<svg fill="none" height="73" viewBox="0 0 77 73" width="77" xmlns="http://www.w3.org/2000/svg"><path d="m76.1101 68.3724-33.38-67.07997c-.0447-.10622-.11-.2025-.1922-.28326-.0822-.080759-.1796-.144383-.2866-.187179s-.2214-.063911-.3367-.06212c-.1152.001791-.2289.026453-.3345.072554-.1025.041863-.1952.104279-.2726.183395-.0774.07912-.1378.17325-.1774.27661l-33.9 66.78997-.15.28-.48.88 23.5-27.89c.0737-.0919.165-.1682.2685-.2246s.2171-.0916.3343-.1037.2357-.0008.3485.0333c.1128.034.2177.0901.3087.165l.08.08 9.84 10.44c.1665.1643.3911.2564.625.2564s.4585-.0921.625-.2564l9.89-10.42c.1682-.1649.3944-.2572.63-.2572s.4618.0923.63.2572l.09.1 22.85 27.83z" stroke="#fff" stroke-miterlimit="10" stroke-width=".38"/><path d="m71.5 69.8827-33.35-67.04999c-.0445-.10622-.1099-.20242-.1924-.28288-.0824-.08046-.1801-.14355-.2874-.18552-.1072-.04197-.2218-.06197-.3369-.05881-.1152.00316-.2285.02942-.3333.07721-.1998.09019-.3598.2502-.45.45l-33.92 66.78999-.15.28-.48.88 23.5-27.9c.1519-.1818.3694-.2964.6053-.3189s.4712.049.6547.1989l.08.08 9.84 10.43c.1585.1725.3787.2756.6127.2868s.463-.0703.6373-.2268l.05-.06 9.85-10.41c.0818-.0825.1792-.148.2864-.1928.1073-.0447.2224-.0677.3386-.0677s.2313.023.3386.0677c.1072.0448.2046.1103.2864.1928.0382.0281.0719.0618.1.1l22.8 27.88z" stroke="#fff" stroke-miterlimit="10" stroke-width=".38"/><path d="m73.81 67.5827-33.36-67.05004c-.0446-.106217-.11-.202499-.1922-.283257s-.1796-.144382-.2866-.1871777c-.107-.042796-.2214-.06391141-.3366-.06212017s-.229.02645337-.3346.07255457c-.1024.0418633-.1952.1042783-.2726.1833943-.0774.079117-.1378.173255-.1774.276606l-33.92996 66.78004-.15.28-.48.88 23.49996-27.9c.0752-.0905.1676-.1651.2718-.2197.1042-.0545.2181-.0879.3353-.0981s.2352.0029.3473.0385c.112.0357.2159.0932.3056.1693l.08.07 9.89 10.47c.0776.0855.1715.1548.2761.2038.1047.0489.218.0765.3335.0811.1154.0047.2306-.0137.3388-.054.1083-.0404.2074-.1019.2916-.1809.0036-.0165.0036-.0336 0-.05l9.84-10.42c.1666-.1643.3911-.2564.625-.2564.234 0 .4585.0921.625.2564l.1.1 22.82 27.8z" fill="#fff"/></svg>