<svg viewBox="0 0 271.02 10.63" xmlns="http://www.w3.org/2000/svg"><g fill="#ededed"><path d="m11.5 9.6c2.3.11 4.59.22 6.88.3 4.13.14 8.25.21 12.37.26h3.16.6a2.79 2.79 0 0 0 2.56-.12 4 4 0 0 0 1-.39 3.05 3.05 0 0 0 1.1-1.1 3.09 3.09 0 0 0 .31-2.36 3.17 3.17 0 0 0 -.79-1.36l-.62-.48a3.24 3.24 0 0 0 -1.53-.35 2.81 2.81 0 0 0 -.91.11c-1.75 0-3.51 0-5.27 0-2 0-4.06 0-6.08-.08-4.38-.09-8.74-.24-13.11-.45l-3.06-.22-1.3-.06q-.91-.04-1.81-.06c-.64 0-1.28.09-1.93.15l-.8.11a3 3 0 0 0 -2.16 2.1 2.9 2.9 0 0 0 0 1.6 3.32 3.32 0 0 0 2.53 2.49l1.3.35a3.06 3.06 0 0 0 2.85-.7h.39l1.44.08z"/><path d="m53.91 10.55a3.09 3.09 0 1 0 -3.08-3.09 3.12 3.12 0 0 0 3.08 3.09z"/><path d="m72.42 10.38c9.16 0 18.34-.07 27.51 0a35.32 35.32 0 0 1 3.85.18l.33.05a3.06 3.06 0 0 0 2.94-2.24 3.06 3.06 0 0 0 -.31-2.37 3 3 0 0 0 -1.82-1.41 37 37 0 0 0 -6.82-.42h-25.68a3.09 3.09 0 1 0 0 6.17z"/><path d="m121.83 9.52a3.12 3.12 0 0 0 3.09-3.08 3.09 3.09 0 1 0 -3.09 3.08z"/><path d="m141.25 7.79c5.75-.41 11.44-.79 17.16-1.13 2.23-.14 4.47-.2 6.7-.3 1.93-.09 3.86-.15 5.79-.21 1.18 0 2.36-.06 3.54-.07h2.07 2.76l.18.06a2.79 2.79 0 0 0 3.14-1.28 2.75 2.75 0 0 0 .38-1.4 2.69 2.69 0 0 0 -.81-2c-.32-.25-.63-.5-1-.72a4.83 4.83 0 0 0 -1.36-.51 9.47 9.47 0 0 0 -1.5-.19 4.09 4.09 0 0 0 -.46 0c-.46 0-.92 0-1.39 0h-.16c-1 0-2 0-3.06.05-2.29.06-4.58.14-6.87.22q-5.94.22-11.85.62-6.66.42-13.3.89a3.19 3.19 0 0 0 -2.13.88 3 3 0 0 0 0 4.25 2.9 2.9 0 0 0 2.17.84z"/><path d="m201.54 7.56a3.12 3.12 0 0 0 3.08-3.09 3.09 3.09 0 1 0 -6.17 0 3.12 3.12 0 0 0 3.09 3.09z"/><path d="m225.62 8q14.81.36 29.6.94l5.62.21c1 0 1.94.08 2.91.1h1.61a5.8 5.8 0 0 0 .59 0 2.46 2.46 0 0 0 .51.39 2.92 2.92 0 0 0 2.24.29 2.83 2.83 0 0 0 1.73-1.33 7.73 7.73 0 0 0 .47-1.07 3.62 3.62 0 0 0 0-1.73 3.54 3.54 0 0 0 -1.83-2.14 5.63 5.63 0 0 0 -2.71-.51c-.28 0-.57 0-.86 0l-3.23-.1-7-.26c-3.68-.14-7.35-.31-11-.41q-9.33-.28-18.67-.53h-.07a3.09 3.09 0 0 0 -3 3.06 3.11 3.11 0 0 0 3.09 3.09z"/></g></svg>